{"glyphs":{"0":{"ha":1307,"x_min":0,"x_max":1225,"o":"m 817 408 l 817 980 l 408 980 l 408 408 l 817 408 m 245 0 l 0 245 l 0 1144 l 245 1389 l 980 1389 l 1225 1144 l 1225 245 l 980 0 l 245 0 z "},"1":{"ha":735,"x_min":0,"x_max":653,"o":"m 245 0 l 245 980 l 0 980 l 0 1144 l 245 1389 l 653 1389 l 653 0 l 245 0 z "},"2":{"ha":1307,"x_min":0,"x_max":1225,"o":"m 0 0 l 0 653 l 245 899 l 817 899 l 817 980 l 81 980 l 81 1389 l 980 1389 l 1225 1144 l 1225 735 l 980 490 l 408 490 l 408 408 l 1225 408 l 1225 0 l 0 0 z "},"3":{"ha":1307,"x_min":0,"x_max":1225,"o":"m 0 0 l 0 408 l 817 408 l 817 490 l 327 490 l 327 899 l 817 899 l 817 980 l 0 980 l 0 1389 l 980 1389 l 1225 1144 l 1225 817 l 1144 735 l 1143 735 l 1103 694 l 1225 572 l 1225 245 l 980 0 l 0 0 z "},"4":{"ha":1307,"x_min":0,"x_max":1225,"o":"m 817 0 l 817 490 l 245 490 l 0 735 l 0 1389 l 408 1389 l 408 899 l 817 899 l 817 1389 l 1225 1389 l 1225 0 l 817 0 z "},"5":{"ha":1307,"x_min":0,"x_max":1225,"o":"m 0 0 l 0 408 l 817 408 l 817 490 l 0 490 l 0 1389 l 1144 1389 l 1144 980 l 408 980 l 408 899 l 980 899 l 1225 653 l 1225 245 l 980 0 l 0 0 z "},"6":{"ha":1307,"x_min":0,"x_max":1225,"o":"m 817 408 l 817 490 l 408 490 l 408 408 l 817 408 m 245 0 l 0 245 l 0 1144 l 245 1389 l 1144 1389 l 1144 980 l 408 980 l 408 899 l 980 899 l 1225 653 l 1225 245 l 980 0 l 245 0 z "},"7":{"ha":1307,"x_min":0,"x_max":1225,"o":"m 817 0 l 817 980 l 0 980 l 0 1389 l 1225 1389 l 1225 0 l 817 0 z "},"8":{"ha":1307,"x_min":0,"x_max":1225,"o":"m 817 408 l 817 490 l 408 490 l 408 408 l 817 408 m 817 899 l 817 980 l 408 980 l 408 899 l 817 899 m 245 0 l 0 245 l 0 572 l 122 694 l 82 735 l 81 735 l 0 817 l 0 1144 l 245 1389 l 980 1389 l 1225 1144 l 1225 817 l 1144 735 l 1143 735 l 1103 694 l 1225 572 l 1225 245 l 980 0 l 245 0 z "},"9":{"ha":1307,"x_min":0,"x_max":1225,"o":"m 817 899 l 817 980 l 408 980 l 408 899 l 817 899 m 81 0 l 81 408 l 817 408 l 817 490 l 245 490 l 0 735 l 0 1144 l 245 1389 l 980 1389 l 1225 1144 l 1225 245 l 980 0 l 81 0 z "}," ":{"ha":572,"x_min":0,"x_max":0,"o":""},"!":{"ha":490,"x_min":0,"x_max":408,"o":"m 0 0 l 0 408 l 408 408 l 408 0 l 0 0 m 0 490 l 0 1389 l 408 1389 l 408 490 l 0 490 z "},"\"":{"ha":980,"x_min":0,"x_max":899,"o":"m 0 817 l 0 1389 l 408 1389 l 408 817 l 0 817 m 490 817 l 490 1389 l 899 1389 l 899 817 l 490 817 z "},"#":{"ha":1307,"x_min":0,"x_max":1225,"o":"m 653 572 l 653 817 l 572 817 l 572 572 l 653 572 m 163 0 l 163 163 l 0 163 l 0 572 l 163 572 l 163 817 l 0 817 l 0 1225 l 163 1225 l 163 1389 l 572 1389 l 572 1225 l 653 1225 l 653 1389 l 1062 1389 l 1062 1225 l 1225 1225 l 1225 817 l 1062 817 l 1062 572 l 1225 572 l 1225 163 l 1062 163 l 1062 0 l 653 0 l 653 163 l 572 163 l 572 0 l 163 0 z "},"$":{"ha":1307,"x_min":0,"x_max":1225,"o":"m 408 -81 l 408 0 l 81 0 l 81 408 l 817 408 l 817 490 l 245 490 l 0 735 l 0 1144 l 245 1389 l 408 1389 l 408 1470 l 817 1470 l 817 1389 l 1144 1389 l 1144 980 l 408 980 l 408 899 l 980 899 l 1225 653 l 1225 245 l 980 0 l 817 0 l 817 -81 l 408 -81 z "},"%":{"ha":1307,"x_min":0,"x_max":1225,"o":"m 817 0 l 817 408 l 1225 408 l 1225 0 l 817 0 m 0 980 l 0 1389 l 408 1389 l 408 980 l 0 980 m 0 0 l 0 408 l 817 1225 l 817 1389 l 1225 1389 l 1225 980 l 408 163 l 408 0 l 0 0 z "},"&":{"ha":1307,"x_min":0,"x_max":1225,"o":"m 490 -81 l 490 0 l 245 0 l 0 245 l 0 572 l 122 694 l 82 735 l 81 735 l 0 817 l 0 1144 l 245 1389 l 490 1389 l 490 1470 l 899 1470 l 899 1389 l 1225 1389 l 1225 980 l 408 980 l 408 899 l 899 899 l 899 490 l 408 490 l 408 408 l 1225 408 l 1225 0 l 899 0 l 899 -81 l 490 -81 z "},"'":{"ha":490,"x_min":0,"x_max":408,"o":"m 0 817 l 0 1389 l 408 1389 l 408 817 l 0 817 z "},"(":{"ha":653,"x_min":0,"x_max":572,"o":"m 245 -81 l 0 163 l 0 1225 l 245 1470 l 572 1470 l 572 1062 l 408 1062 l 408 327 l 572 327 l 572 -81 l 245 -81 z "},")":{"ha":653,"x_min":0,"x_max":572,"o":"m 0 -81 l 0 327 l 163 327 l 163 1062 l 0 1062 l 0 1470 l 327 1470 l 572 1225 l 572 163 l 327 -81 l 0 -81 z "},"*":{"ha":1307,"x_min":0,"x_max":1225,"o":"m 817 327 l 817 1062 l 408 1062 l 408 327 l 817 327 m 0 -81 l 0 1470 l 1225 1470 l 1225 -81 l 0 -81 z "},"+":{"ha":1307,"x_min":0,"x_max":1225,"o":"m 408 81 l 408 490 l 0 490 l 0 899 l 408 899 l 408 1307 l 817 1307 l 817 899 l 1225 899 l 1225 490 l 817 490 l 817 81 l 408 81 z "},",":{"ha":490,"x_min":0,"x_max":408,"o":"m 0 -163 l 0 408 l 408 408 l 408 -163 l 0 -163 z "},"-":{"ha":1307,"x_min":0,"x_max":1225,"o":"m 0 490 l 0 899 l 1225 899 l 1225 490 l 0 490 z "},".":{"ha":490,"x_min":0,"x_max":408,"o":"m 0 0 l 0 408 l 408 408 l 408 0 l 0 0 z "},"/":{"ha":899,"x_min":0,"x_max":817,"o":"m 0 0 l 0 653 l 408 1062 l 408 1389 l 817 1389 l 817 817 l 408 408 l 408 0 l 0 0 z "},":":{"ha":490,"x_min":0,"x_max":408,"o":"m 0 0 l 0 408 l 408 408 l 408 0 l 0 0 m 0 817 l 0 1225 l 408 1225 l 408 817 l 0 817 z "},";":{"ha":490,"x_min":0,"x_max":408,"o":"m 0 -163 l 0 408 l 408 408 l 408 -163 l 0 -163 m 0 817 l 0 1225 l 408 1225 l 408 817 l 0 817 z "},"<":{"ha":817,"x_min":0,"x_max":735,"o":"m 408 81 l 0 490 l 0 899 l 408 1307 l 735 1307 l 735 899 l 572 899 l 368 694 l 408 653 l 408 653 l 572 490 l 735 490 l 735 81 l 408 81 z "},"=":{"ha":1307,"x_min":0,"x_max":1225,"o":"m 0 245 l 0 653 l 1225 653 l 1225 245 l 0 245 m 0 735 l 0 1144 l 1225 1144 l 1225 735 l 0 735 z "},">":{"ha":817,"x_min":0,"x_max":735,"o":"m 0 81 l 0 490 l 163 490 l 327 653 l 327 653 l 368 694 l 163 899 l 0 899 l 0 1307 l 327 1307 l 735 899 l 735 490 l 327 81 l 0 81 z "},"?":{"ha":1307,"x_min":0,"x_max":1225,"o":"m 163 0 l 163 408 l 572 408 l 572 0 l 163 0 m 163 490 l 163 653 l 408 899 l 817 899 l 817 980 l 0 980 l 0 1389 l 980 1389 l 1225 1144 l 1225 735 l 980 490 l 163 490 z "},"@":{"ha":1470,"x_min":0,"x_max":1389,"o":"m 245 0 l 0 245 l 0 1144 l 245 1389 l 1144 1389 l 1389 1144 l 1389 735 l 1144 490 l 490 490 l 490 899 l 980 899 l 980 980 l 408 980 l 408 408 l 1307 408 l 1307 0 l 245 0 z "},"A":{"ha":1307,"x_min":0,"x_max":1225,"o":"m 817 899 l 817 980 l 408 980 l 408 899 l 817 899 m 0 0 l 0 1144 l 245 1389 l 980 1389 l 1225 1144 l 1225 0 l 817 0 l 817 490 l 408 490 l 408 0 l 0 0 z "},"B":{"ha":1307,"x_min":0,"x_max":1225,"o":"m 817 408 l 817 490 l 408 490 l 408 408 l 817 408 m 817 899 l 817 980 l 408 980 l 408 899 l 817 899 m 0 0 l 0 1389 l 980 1389 l 1225 1144 l 1225 817 l 1144 735 l 1143 735 l 1103 694 l 1225 572 l 1225 245 l 980 0 l 0 0 z "},"C":{"ha":1307,"x_min":0,"x_max":1225,"o":"m 245 0 l 0 245 l 0 1144 l 245 1389 l 1225 1389 l 1225 980 l 408 980 l 408 408 l 1225 408 l 1225 0 l 245 0 z "},"D":{"ha":1307,"x_min":0,"x_max":1225,"o":"m 817 408 l 817 980 l 408 980 l 408 408 l 817 408 m 0 0 l 0 1389 l 980 1389 l 1225 1144 l 1225 245 l 980 0 l 0 0 z "},"E":{"ha":1307,"x_min":0,"x_max":1225,"o":"m 0 0 l 0 1389 l 1225 1389 l 1225 980 l 408 980 l 408 899 l 899 899 l 899 490 l 408 490 l 408 408 l 1225 408 l 1225 0 l 0 0 z "},"F":{"ha":1307,"x_min":0,"x_max":1225,"o":"m 0 0 l 0 1389 l 1225 1389 l 1225 980 l 408 980 l 408 899 l 899 899 l 899 490 l 408 490 l 408 0 l 0 0 z "},"G":{"ha":1307,"x_min":0,"x_max":1225,"o":"m 245 0 l 0 245 l 0 1144 l 245 1389 l 1225 1389 l 1225 980 l 408 980 l 408 408 l 817 408 l 817 490 l 653 490 l 653 899 l 1225 899 l 1225 0 l 245 0 z "},"H":{"ha":1307,"x_min":0,"x_max":1225,"o":"m 0 0 l 0 1389 l 408 1389 l 408 899 l 817 899 l 817 1389 l 1225 1389 l 1225 0 l 817 0 l 817 490 l 408 490 l 408 0 l 0 0 z "},"I":{"ha":817,"x_min":0,"x_max":735,"o":"m 0 0 l 0 408 l 163 408 l 163 980 l 0 980 l 0 1389 l 735 1389 l 735 980 l 572 980 l 572 408 l 735 408 l 735 0 l 0 0 z "},"J":{"ha":1307,"x_min":0,"x_max":1225,"o":"m 0 0 l 0 408 l 817 408 l 817 980 l 408 980 l 408 1389 l 1225 1389 l 1225 245 l 980 0 l 0 0 z "},"K":{"ha":1307,"x_min":0,"x_max":1225,"o":"m 0 0 l 0 1389 l 408 1389 l 408 899 l 817 899 l 817 1389 l 1225 1389 l 1225 817 l 1144 735 l 1143 735 l 1103 694 l 1225 572 l 1225 0 l 817 0 l 817 490 l 408 490 l 408 0 l 0 0 z "},"L":{"ha":1307,"x_min":0,"x_max":1225,"o":"m 0 0 l 0 1389 l 408 1389 l 408 408 l 1225 408 l 1225 0 l 0 0 z "},"M":{"ha":1634,"x_min":0,"x_max":1552,"o":"m 0 0 l 0 1144 l 245 1389 l 653 1389 l 735 1307 l 735 1307 l 776 1266 l 899 1389 l 1307 1389 l 1552 1144 l 1552 0 l 1144 0 l 1144 980 l 980 980 l 980 0 l 572 0 l 572 980 l 408 980 l 408 0 l 0 0 z "},"N":{"ha":1307,"x_min":0,"x_max":1225,"o":"m 0 0 l 0 1144 l 245 1389 l 980 1389 l 1225 1144 l 1225 0 l 817 0 l 817 980 l 408 980 l 408 0 l 0 0 z "},"O":{"ha":1307,"x_min":0,"x_max":1225,"o":"m 817 408 l 817 980 l 408 980 l 408 408 l 817 408 m 245 0 l 0 245 l 0 1144 l 245 1389 l 980 1389 l 1225 1144 l 1225 245 l 980 0 l 245 0 z "},"P":{"ha":1307,"x_min":0,"x_max":1225,"o":"m 817 899 l 817 980 l 408 980 l 408 899 l 817 899 m 0 0 l 0 1389 l 980 1389 l 1225 1144 l 1225 735 l 980 490 l 408 490 l 408 0 l 0 0 z "},"Q":{"ha":1307,"x_min":0,"x_max":1225,"o":"m 735 408 l 735 490 l 817 490 l 817 980 l 408 980 l 408 408 l 735 408 m 245 0 l 0 245 l 0 1144 l 245 1389 l 980 1389 l 1225 1144 l 1225 490 l 1225 490 l 1184 449 l 1225 408 l 1225 0 l 817 0 l 776 41 l 735 0 l 245 0 z "},"R":{"ha":1307,"x_min":0,"x_max":1225,"o":"m 817 899 l 817 980 l 408 980 l 408 899 l 817 899 m 0 0 l 0 1389 l 980 1389 l 1225 1144 l 1225 817 l 1144 735 l 1143 735 l 1103 694 l 1225 572 l 1225 0 l 817 0 l 817 490 l 408 490 l 408 0 l 0 0 z "},"S":{"ha":1307,"x_min":0,"x_max":1225,"o":"m 81 0 l 81 408 l 817 408 l 817 490 l 245 490 l 0 735 l 0 1144 l 245 1389 l 1144 1389 l 1144 980 l 408 980 l 408 899 l 980 899 l 1225 653 l 1225 245 l 980 0 l 81 0 z "},"T":{"ha":1307,"x_min":0,"x_max":1225,"o":"m 408 0 l 408 980 l 0 980 l 0 1389 l 1225 1389 l 1225 980 l 817 980 l 817 0 l 408 0 z "},"U":{"ha":1307,"x_min":0,"x_max":1225,"o":"m 245 0 l 0 245 l 0 1389 l 408 1389 l 408 408 l 817 408 l 817 1389 l 1225 1389 l 1225 245 l 980 0 l 245 0 z "},"V":{"ha":1307,"x_min":0,"x_max":1225,"o":"m 408 0 l 0 408 l 0 1389 l 408 1389 l 408 572 l 572 408 l 572 408 l 613 368 l 817 572 l 817 1389 l 1225 1389 l 1225 408 l 817 0 l 408 0 z "},"W":{"ha":1634,"x_min":0,"x_max":1552,"o":"m 245 0 l 0 245 l 0 1389 l 408 1389 l 408 408 l 572 408 l 572 1389 l 980 1389 l 980 408 l 1144 408 l 1144 1389 l 1552 1389 l 1552 245 l 1307 0 l 899 0 l 776 122 l 735 82 l 735 81 l 653 0 l 245 0 z "},"X":{"ha":1307,"x_min":0,"x_max":1225,"o":"m 0 0 l 0 572 l 81 653 l 82 653 l 122 694 l 0 817 l 0 1389 l 408 1389 l 408 899 l 817 899 l 817 1389 l 1225 1389 l 1225 817 l 1144 735 l 1143 735 l 1103 694 l 1225 572 l 1225 0 l 817 0 l 817 490 l 408 490 l 408 0 l 0 0 z "},"Y":{"ha":1307,"x_min":0,"x_max":1225,"o":"m 408 0 l 408 408 l 0 817 l 0 1389 l 408 1389 l 408 980 l 572 817 l 572 817 l 613 776 l 817 980 l 817 1389 l 1225 1389 l 1225 817 l 817 408 l 817 0 l 408 0 z "},"Z":{"ha":1307,"x_min":0,"x_max":1225,"o":"m 0 0 l 0 408 l 572 980 l 0 980 l 0 1389 l 1225 1389 l 1225 980 l 653 408 l 1225 408 l 1225 0 l 0 0 z "},"[":{"ha":653,"x_min":0,"x_max":572,"o":"m 0 -81 l 0 1470 l 572 1470 l 572 1062 l 408 1062 l 408 327 l 572 327 l 572 -81 l 0 -81 z "},"\\":{"ha":899,"x_min":0,"x_max":817,"o":"m 408 0 l 408 408 l 0 817 l 0 1389 l 408 1389 l 408 1062 l 817 653 l 817 0 l 408 0 z "},"]":{"ha":653,"x_min":0,"x_max":572,"o":"m 0 -81 l 0 327 l 163 327 l 163 1062 l 0 1062 l 0 1470 l 572 1470 l 572 -81 l 0 -81 z "},"^":{"ha":1307,"x_min":0,"x_max":1225,"o":"m 0 653 l 0 980 l 408 1389 l 817 1389 l 1225 980 l 1225 653 l 817 653 l 817 817 l 613 1021 l 572 981 l 572 980 l 408 817 l 408 653 l 0 653 z "},"_":{"ha":1307,"x_min":0,"x_max":1225,"o":"m 0 0 l 0 408 l 1225 408 l 1225 0 l 0 0 z "},"`":{"ha":653,"x_min":0,"x_max":572,"o":"m 245 1144 l 0 1389 l 327 1389 l 572 1144 l 245 1144 z "},"a":{"ha":1307,"x_min":0,"x_max":1225,"o":"m 817 899 l 817 980 l 408 980 l 408 899 l 817 899 m 0 0 l 0 1144 l 245 1389 l 980 1389 l 1225 1144 l 1225 0 l 817 0 l 817 490 l 408 490 l 408 0 l 0 0 z "},"b":{"ha":1307,"x_min":0,"x_max":1225,"o":"m 817 408 l 817 490 l 408 490 l 408 408 l 817 408 m 817 899 l 817 980 l 408 980 l 408 899 l 817 899 m 0 0 l 0 1389 l 980 1389 l 1225 1144 l 1225 817 l 1144 735 l 1143 735 l 1103 694 l 1225 572 l 1225 245 l 980 0 l 0 0 z "},"c":{"ha":1307,"x_min":0,"x_max":1225,"o":"m 245 0 l 0 245 l 0 1144 l 245 1389 l 1225 1389 l 1225 980 l 408 980 l 408 408 l 1225 408 l 1225 0 l 245 0 z "},"d":{"ha":1307,"x_min":0,"x_max":1225,"o":"m 817 408 l 817 980 l 408 980 l 408 408 l 817 408 m 0 0 l 0 1389 l 980 1389 l 1225 1144 l 1225 245 l 980 0 l 0 0 z "},"e":{"ha":1307,"x_min":0,"x_max":1225,"o":"m 0 0 l 0 1389 l 1225 1389 l 1225 980 l 408 980 l 408 899 l 899 899 l 899 490 l 408 490 l 408 408 l 1225 408 l 1225 0 l 0 0 z "},"f":{"ha":1307,"x_min":0,"x_max":1225,"o":"m 0 0 l 0 1389 l 1225 1389 l 1225 980 l 408 980 l 408 899 l 899 899 l 899 490 l 408 490 l 408 0 l 0 0 z "},"g":{"ha":1307,"x_min":0,"x_max":1225,"o":"m 245 0 l 0 245 l 0 1144 l 245 1389 l 1225 1389 l 1225 980 l 408 980 l 408 408 l 817 408 l 817 490 l 653 490 l 653 899 l 1225 899 l 1225 0 l 245 0 z "},"h":{"ha":1307,"x_min":0,"x_max":1225,"o":"m 0 0 l 0 1389 l 408 1389 l 408 899 l 817 899 l 817 1389 l 1225 1389 l 1225 0 l 817 0 l 817 490 l 408 490 l 408 0 l 0 0 z "},"i":{"ha":817,"x_min":0,"x_max":735,"o":"m 0 0 l 0 408 l 163 408 l 163 980 l 0 980 l 0 1389 l 735 1389 l 735 980 l 572 980 l 572 408 l 735 408 l 735 0 l 0 0 z "},"j":{"ha":1307,"x_min":0,"x_max":1225,"o":"m 0 0 l 0 408 l 817 408 l 817 980 l 408 980 l 408 1389 l 1225 1389 l 1225 245 l 980 0 l 0 0 z "},"k":{"ha":1307,"x_min":0,"x_max":1225,"o":"m 0 0 l 0 1389 l 408 1389 l 408 899 l 817 899 l 817 1389 l 1225 1389 l 1225 817 l 1144 735 l 1143 735 l 1103 694 l 1225 572 l 1225 0 l 817 0 l 817 490 l 408 490 l 408 0 l 0 0 z "},"l":{"ha":1307,"x_min":0,"x_max":1225,"o":"m 0 0 l 0 1389 l 408 1389 l 408 408 l 1225 408 l 1225 0 l 0 0 z "},"m":{"ha":1634,"x_min":0,"x_max":1552,"o":"m 0 0 l 0 1144 l 245 1389 l 653 1389 l 735 1307 l 735 1307 l 776 1266 l 899 1389 l 1307 1389 l 1552 1144 l 1552 0 l 1144 0 l 1144 980 l 980 980 l 980 0 l 572 0 l 572 980 l 408 980 l 408 0 l 0 0 z "},"n":{"ha":1307,"x_min":0,"x_max":1225,"o":"m 0 0 l 0 1144 l 245 1389 l 980 1389 l 1225 1144 l 1225 0 l 817 0 l 817 980 l 408 980 l 408 0 l 0 0 z "},"o":{"ha":1307,"x_min":0,"x_max":1225,"o":"m 817 408 l 817 980 l 408 980 l 408 408 l 817 408 m 245 0 l 0 245 l 0 1144 l 245 1389 l 980 1389 l 1225 1144 l 1225 245 l 980 0 l 245 0 z "},"p":{"ha":1307,"x_min":0,"x_max":1225,"o":"m 817 899 l 817 980 l 408 980 l 408 899 l 817 899 m 0 0 l 0 1389 l 980 1389 l 1225 1144 l 1225 735 l 980 490 l 408 490 l 408 0 l 0 0 z "},"q":{"ha":1307,"x_min":0,"x_max":1225,"o":"m 735 408 l 735 490 l 817 490 l 817 980 l 408 980 l 408 408 l 735 408 m 245 0 l 0 245 l 0 1144 l 245 1389 l 980 1389 l 1225 1144 l 1225 490 l 1225 490 l 1184 449 l 1225 408 l 1225 0 l 817 0 l 776 41 l 735 0 l 245 0 z "},"r":{"ha":1307,"x_min":0,"x_max":1225,"o":"m 817 899 l 817 980 l 408 980 l 408 899 l 817 899 m 0 0 l 0 1389 l 980 1389 l 1225 1144 l 1225 817 l 1144 735 l 1143 735 l 1103 694 l 1225 572 l 1225 0 l 817 0 l 817 490 l 408 490 l 408 0 l 0 0 z "},"s":{"ha":1307,"x_min":0,"x_max":1225,"o":"m 81 0 l 81 408 l 817 408 l 817 490 l 245 490 l 0 735 l 0 1144 l 245 1389 l 1144 1389 l 1144 980 l 408 980 l 408 899 l 980 899 l 1225 653 l 1225 245 l 980 0 l 81 0 z "},"t":{"ha":1307,"x_min":0,"x_max":1225,"o":"m 408 0 l 408 980 l 0 980 l 0 1389 l 1225 1389 l 1225 980 l 817 980 l 817 0 l 408 0 z "},"u":{"ha":1307,"x_min":0,"x_max":1225,"o":"m 245 0 l 0 245 l 0 1389 l 408 1389 l 408 408 l 817 408 l 817 1389 l 1225 1389 l 1225 245 l 980 0 l 245 0 z "},"v":{"ha":1307,"x_min":0,"x_max":1225,"o":"m 408 0 l 0 408 l 0 1389 l 408 1389 l 408 572 l 572 408 l 572 408 l 613 368 l 817 572 l 817 1389 l 1225 1389 l 1225 408 l 817 0 l 408 0 z "},"w":{"ha":1634,"x_min":0,"x_max":1552,"o":"m 245 0 l 0 245 l 0 1389 l 408 1389 l 408 408 l 572 408 l 572 1389 l 980 1389 l 980 408 l 1144 408 l 1144 1389 l 1552 1389 l 1552 245 l 1307 0 l 899 0 l 776 122 l 735 82 l 735 81 l 653 0 l 245 0 z "},"x":{"ha":1307,"x_min":0,"x_max":1225,"o":"m 0 0 l 0 572 l 81 653 l 82 653 l 122 694 l 0 817 l 0 1389 l 408 1389 l 408 899 l 817 899 l 817 1389 l 1225 1389 l 1225 817 l 1144 735 l 1143 735 l 1103 694 l 1225 572 l 1225 0 l 817 0 l 817 490 l 408 490 l 408 0 l 0 0 z "},"y":{"ha":1307,"x_min":0,"x_max":1225,"o":"m 408 0 l 408 408 l 0 817 l 0 1389 l 408 1389 l 408 980 l 572 817 l 572 817 l 613 776 l 817 980 l 817 1389 l 1225 1389 l 1225 817 l 817 408 l 817 0 l 408 0 z "},"z":{"ha":1307,"x_min":0,"x_max":1225,"o":"m 0 0 l 0 408 l 572 980 l 0 980 l 0 1389 l 1225 1389 l 1225 980 l 653 408 l 1225 408 l 1225 0 l 0 0 z "},"{":{"ha":817,"x_min":0,"x_max":735,"o":"m 408 -81 l 163 163 l 163 490 l 0 490 l 0 899 l 163 899 l 163 1225 l 408 1470 l 735 1470 l 735 1062 l 572 1062 l 572 817 l 490 735 l 490 735 l 449 694 l 572 572 l 572 327 l 735 327 l 735 -81 l 408 -81 z "},"|":{"ha":490,"x_min":0,"x_max":408,"o":"m 0 -81 l 0 1470 l 408 1470 l 408 -81 l 0 -81 z "},"}":{"ha":817,"x_min":0,"x_max":735,"o":"m 0 -81 l 0 327 l 163 327 l 163 572 l 286 694 l 245 735 l 245 735 l 163 817 l 163 1062 l 0 1062 l 0 1470 l 327 1470 l 572 1225 l 572 899 l 735 899 l 735 490 l 572 490 l 572 163 l 327 -81 l 0 -81 z "},"~":{"ha":1307,"x_min":0,"x_max":1225,"o":"m 163 327 l 0 490 l 0 572 l 327 572 l 327 653 l 0 653 l 0 735 l 163 899 l 408 899 l 490 817 l 490 735 l 735 735 l 735 817 l 817 899 l 1062 899 l 1225 735 l 1225 653 l 899 653 l 899 572 l 1225 572 l 1225 490 l 1062 327 l 817 327 l 735 408 l 735 490 l 490 490 l 490 408 l 408 327 l 163 327 z "},"¡":{"ha":490,"x_min":0,"x_max":408,"o":"m 0 0 l 0 899 l 408 899 l 408 0 l 0 0 m 0 980 l 0 1389 l 408 1389 l 408 980 l 0 980 z "},"¢":{"ha":1307,"x_min":0,"x_max":1225,"o":"m 572 408 l 572 980 l 408 980 l 408 408 l 572 408 m 572 -81 l 572 0 l 245 0 l 0 245 l 0 1144 l 245 1389 l 572 1389 l 572 1470 l 980 1470 l 980 1389 l 1225 1389 l 1225 980 l 980 980 l 980 408 l 1225 408 l 1225 0 l 980 0 l 980 -81 l 572 -81 z "},"£":{"ha":1307,"x_min":0,"x_max":1225,"o":"m 81 0 l 81 490 l 0 490 l 0 899 l 81 899 l 81 1144 l 327 1389 l 980 1389 l 980 980 l 490 980 l 490 899 l 817 899 l 817 490 l 490 490 l 490 408 l 1225 408 l 1225 0 l 81 0 z "},"¤":{"ha":1307,"x_min":0,"x_max":1225,"o":"m 817 327 l 817 1062 l 408 1062 l 408 327 l 817 327 m 0 -81 l 0 1470 l 1225 1470 l 1225 -81 l 0 -81 z "},"¥":{"ha":1307,"x_min":0,"x_max":1225,"o":"m 408 0 l 408 163 l 245 163 l 245 572 l 408 572 l 408 653 l 0 1062 l 0 1389 l 408 1389 l 408 1225 l 572 1062 l 572 1062 l 613 1021 l 817 1225 l 817 1389 l 1225 1389 l 1225 1062 l 817 653 l 817 572 l 980 572 l 980 163 l 817 163 l 817 0 l 408 0 z "},"¦":{"ha":490,"x_min":0,"x_max":408,"o":"m 0 -81 l 0 653 l 408 653 l 408 -81 l 0 -81 m 0 735 l 0 1470 l 408 1470 l 408 735 l 0 735 z "},"§":{"ha":1307,"x_min":0,"x_max":1225,"o":"m 735 572 l 735 817 l 490 817 l 490 572 l 735 572 m 81 0 l 81 408 l 327 408 l 327 490 l 245 490 l 0 735 l 0 1144 l 245 1389 l 1144 1389 l 1144 980 l 899 980 l 899 899 l 980 899 l 1225 653 l 1225 245 l 980 0 l 81 0 z "},"¨":{"ha":1062,"x_min":245,"x_max":980,"o":"m 245 1470 l 245 1715 l 572 1715 l 572 1470 l 245 1470 m 653 1470 l 653 1715 l 980 1715 l 980 1470 l 653 1470 z "},"©":{"ha":1307,"x_min":0,"x_max":1225,"o":"m 245 0 l 0 245 l 0 1144 l 245 1389 l 1225 1389 l 1225 980 l 408 980 l 408 408 l 1225 408 l 1225 0 l 245 0 z "},"ª":{"ha":1307,"x_min":0,"x_max":1225,"o":"m 817 899 l 817 980 l 408 980 l 408 899 l 817 899 m 0 0 l 0 1144 l 245 1389 l 980 1389 l 1225 1144 l 1225 0 l 817 0 l 817 490 l 408 490 l 408 0 l 0 0 z "},"«":{"ha":980,"x_min":0,"x_max":899,"o":"m 408 81 l 0 490 l 0 899 l 408 1307 l 408 735 l 368 694 l 408 653 l 408 653 l 408 81 m 899 81 l 490 490 l 490 899 l 899 1307 l 899 735 l 858 694 l 898 653 l 899 653 l 899 81 z "},"¬":{"ha":1307,"x_min":0,"x_max":1225,"o":"m 817 245 l 817 490 l 0 490 l 0 899 l 1225 899 l 1225 245 l 817 245 z "},"­":{"ha":1307,"x_min":0,"x_max":1225,"o":"m 0 490 l 0 899 l 1225 899 l 1225 490 l 0 490 z "},"®":{"ha":1307,"x_min":0,"x_max":1225,"o":"m 817 899 l 817 980 l 408 980 l 408 899 l 817 899 m 0 0 l 0 1389 l 980 1389 l 1225 1144 l 1225 817 l 1144 735 l 1143 735 l 1103 694 l 1225 572 l 1225 0 l 817 0 l 817 490 l 408 490 l 408 0 l 0 0 z "},"¯":{"ha":1307,"x_min":0,"x_max":1225,"o":"m 0 899 l 0 1307 l 1225 1307 l 1225 899 l 0 899 z "},"°":{"ha":1307,"x_min":0,"x_max":1225,"o":"m 817 408 l 817 980 l 408 980 l 408 408 l 817 408 m 245 0 l 0 245 l 0 1144 l 245 1389 l 980 1389 l 1225 1144 l 1225 245 l 980 0 l 245 0 z "},"±":{"ha":1307,"x_min":0,"x_max":1225,"o":"m 0 0 l 0 408 l 408 408 l 408 572 l 0 572 l 0 980 l 408 980 l 408 1389 l 817 1389 l 817 980 l 1225 980 l 1225 572 l 817 572 l 817 408 l 1225 408 l 1225 0 l 0 0 z "},"´":{"ha":1144,"x_min":327,"x_max":1062,"o":"m 327 1470 l 572 1715 l 1062 1715 l 817 1470 l 327 1470 z "},"µ":{"ha":1307,"x_min":0,"x_max":1225,"o":"m 0 -163 l 0 1389 l 408 1389 l 408 408 l 817 408 l 817 1389 l 1225 1389 l 1225 245 l 980 0 l 490 0 l 449 41 l 408 0 l 408 -163 l 0 -163 z "},"¶":{"ha":1307,"x_min":0,"x_max":1225,"o":"m 327 0 l 327 490 l 245 490 l 0 735 l 0 1144 l 245 1389 l 1225 1389 l 1225 0 l 817 0 l 817 980 l 735 980 l 735 0 l 327 0 z "},"·":{"ha":490,"x_min":0,"x_max":408,"o":"m 0 490 l 0 899 l 408 899 l 408 490 l 0 490 z "},"¸":{"ha":980,"x_min":327,"x_max":899,"o":"m 327 -490 l 327 -81 l 490 -81 l 490 0 l 899 0 l 899 -245 l 653 -490 l 327 -490 z "},"º":{"ha":1307,"x_min":0,"x_max":1225,"o":"m 817 408 l 817 980 l 408 980 l 408 408 l 817 408 m 245 0 l 0 245 l 0 1144 l 245 1389 l 980 1389 l 1225 1144 l 1225 245 l 980 0 l 245 0 z "},"»":{"ha":980,"x_min":0,"x_max":899,"o":"m 0 81 l 0 653 l 41 694 l 0 735 l 0 1307 l 408 899 l 408 490 l 0 81 m 490 81 l 490 653 l 490 653 l 531 694 l 490 735 l 490 1307 l 899 899 l 899 490 l 490 81 z "},"¿":{"ha":1307,"x_min":0,"x_max":1225,"o":"m 245 0 l 0 245 l 0 653 l 245 899 l 1062 899 l 1062 735 l 817 490 l 408 490 l 408 408 l 1225 408 l 1225 0 l 245 0 m 653 980 l 653 1389 l 1062 1389 l 1062 980 l 653 980 z "},"À":{"ha":1307,"x_min":0,"x_max":1225,"o":"m 817 899 l 817 980 l 408 980 l 408 899 l 817 899 m 0 0 l 0 1144 l 245 1389 l 980 1389 l 1225 1144 l 1225 0 l 817 0 l 817 490 l 408 490 l 408 0 l 0 0 m 408 1470 l 163 1715 l 653 1715 l 899 1470 l 408 1470 z "},"Á":{"ha":1307,"x_min":0,"x_max":1225,"o":"m 817 899 l 817 980 l 408 980 l 408 899 l 817 899 m 0 0 l 0 1144 l 245 1389 l 980 1389 l 1225 1144 l 1225 0 l 817 0 l 817 490 l 408 490 l 408 0 l 0 0 m 327 1470 l 572 1715 l 1062 1715 l 817 1470 l 327 1470 z "},"Â":{"ha":1307,"x_min":0,"x_max":1225,"o":"m 817 899 l 817 980 l 408 980 l 408 899 l 817 899 m 0 0 l 0 1144 l 245 1389 l 980 1389 l 1225 1144 l 1225 0 l 817 0 l 817 490 l 408 490 l 408 0 l 0 0 m 163 1470 l 408 1715 l 817 1715 l 1062 1470 l 653 1470 l 653 1471 l 613 1511 l 572 1470 l 163 1470 z "},"Ã":{"ha":1307,"x_min":0,"x_max":1225,"o":"m 817 899 l 817 980 l 408 980 l 408 899 l 817 899 m 0 0 l 0 1144 l 245 1389 l 980 1389 l 1225 1144 l 1225 0 l 817 0 l 817 490 l 408 490 l 408 0 l 0 0 m 0 1470 l 245 1715 l 735 1715 l 776 1675 l 817 1715 l 817 1715 l 1225 1715 l 980 1470 l 490 1470 l 490 1471 l 449 1511 l 408 1470 l 0 1470 z "},"Ä":{"ha":1307,"x_min":0,"x_max":1225,"o":"m 817 899 l 817 980 l 408 980 l 408 899 l 817 899 m 0 0 l 0 1144 l 245 1389 l 980 1389 l 1225 1144 l 1225 0 l 817 0 l 817 490 l 408 490 l 408 0 l 0 0 m 245 1470 l 245 1715 l 572 1715 l 572 1470 l 245 1470 m 653 1470 l 653 1715 l 980 1715 l 980 1470 l 653 1470 z "},"Å":{"ha":1307,"x_min":0,"x_max":1225,"o":"m 817 899 l 817 980 l 408 980 l 408 899 l 817 899 m 653 1389 l 653 1470 l 572 1470 l 572 1389 l 653 1389 m 0 0 l 0 1144 l 245 1389 l 245 1634 l 327 1715 l 899 1715 l 980 1634 l 980 1389 l 1225 1144 l 1225 0 l 817 0 l 817 490 l 408 490 l 408 0 l 0 0 z "},"Æ":{"ha":2124,"x_min":0,"x_max":2042,"o":"m 817 899 l 817 980 l 408 980 l 408 899 l 817 899 m 0 0 l 0 1144 l 245 1389 l 980 1389 l 980 1389 l 1021 1348 l 1062 1389 l 2042 1389 l 2042 980 l 1225 980 l 1225 899 l 1715 899 l 1715 490 l 1225 490 l 1225 408 l 2042 408 l 2042 0 l 817 0 l 817 490 l 408 490 l 408 0 l 0 0 z "},"Ç":{"ha":1307,"x_min":0,"x_max":1225,"o":"m 327 -490 l 327 -81 l 490 -81 l 490 0 l 245 0 l 0 245 l 0 1144 l 245 1389 l 1225 1389 l 1225 980 l 408 980 l 408 408 l 1225 408 l 1225 0 l 899 0 l 899 -245 l 653 -490 l 327 -490 z "},"È":{"ha":1307,"x_min":0,"x_max":1225,"o":"m 0 0 l 0 1389 l 1225 1389 l 1225 980 l 408 980 l 408 899 l 899 899 l 899 490 l 408 490 l 408 408 l 1225 408 l 1225 0 l 0 0 m 408 1470 l 163 1715 l 653 1715 l 899 1470 l 408 1470 z "},"É":{"ha":1307,"x_min":0,"x_max":1225,"o":"m 0 0 l 0 1389 l 1225 1389 l 1225 980 l 408 980 l 408 899 l 899 899 l 899 490 l 408 490 l 408 408 l 1225 408 l 1225 0 l 0 0 m 327 1470 l 572 1715 l 1062 1715 l 817 1470 l 327 1470 z "},"Ê":{"ha":1307,"x_min":0,"x_max":1225,"o":"m 0 0 l 0 1389 l 1225 1389 l 1225 980 l 408 980 l 408 899 l 899 899 l 899 490 l 408 490 l 408 408 l 1225 408 l 1225 0 l 0 0 m 163 1470 l 408 1715 l 817 1715 l 1062 1470 l 653 1470 l 653 1471 l 613 1511 l 572 1470 l 163 1470 z "},"Ë":{"ha":1307,"x_min":0,"x_max":1225,"o":"m 0 0 l 0 1389 l 1225 1389 l 1225 980 l 408 980 l 408 899 l 899 899 l 899 490 l 408 490 l 408 408 l 1225 408 l 1225 0 l 0 0 m 245 1470 l 245 1715 l 572 1715 l 572 1470 l 245 1470 m 653 1470 l 653 1715 l 980 1715 l 980 1470 l 653 1470 z "},"Ì":{"ha":817,"x_min":-81,"x_max":735,"o":"m 0 0 l 0 408 l 163 408 l 163 980 l 0 980 l 0 1389 l 735 1389 l 735 980 l 572 980 l 572 408 l 735 408 l 735 0 l 0 0 m 163 1470 l -81 1715 l 408 1715 l 653 1470 l 163 1470 z "},"Í":{"ha":817,"x_min":0,"x_max":817,"o":"m 0 0 l 0 408 l 163 408 l 163 980 l 0 980 l 0 1389 l 735 1389 l 735 980 l 572 980 l 572 408 l 735 408 l 735 0 l 0 0 m 81 1470 l 327 1715 l 817 1715 l 572 1470 l 81 1470 z "},"Î":{"ha":817,"x_min":-81,"x_max":817,"o":"m 0 0 l 0 408 l 163 408 l 163 980 l 0 980 l 0 1389 l 735 1389 l 735 980 l 572 980 l 572 408 l 735 408 l 735 0 l 0 0 m -81 1470 l 163 1715 l 572 1715 l 817 1470 l 408 1470 l 408 1471 l 368 1511 l 327 1470 l -81 1470 z "},"Ï":{"ha":817,"x_min":0,"x_max":735,"o":"m 0 0 l 0 408 l 163 408 l 163 980 l 0 980 l 0 1389 l 735 1389 l 735 980 l 572 980 l 572 408 l 735 408 l 735 0 l 0 0 m 0 1470 l 0 1715 l 327 1715 l 327 1470 l 0 1470 m 408 1470 l 408 1715 l 735 1715 l 735 1470 l 408 1470 z "},"Ð":{"ha":1307,"x_min":0,"x_max":1225,"o":"m 817 408 l 817 980 l 490 980 l 490 899 l 572 899 l 572 490 l 490 490 l 490 408 l 817 408 m 81 0 l 81 490 l 0 490 l 0 899 l 81 899 l 81 1389 l 980 1389 l 1225 1144 l 1225 245 l 980 0 l 81 0 z "},"Ñ":{"ha":1307,"x_min":0,"x_max":1225,"o":"m 0 0 l 0 1144 l 245 1389 l 980 1389 l 1225 1144 l 1225 0 l 817 0 l 817 980 l 408 980 l 408 0 l 0 0 m 0 1470 l 245 1715 l 735 1715 l 776 1675 l 817 1715 l 817 1715 l 1225 1715 l 980 1470 l 490 1470 l 490 1471 l 449 1511 l 408 1470 l 0 1470 z "},"Ò":{"ha":1307,"x_min":0,"x_max":1225,"o":"m 817 408 l 817 980 l 408 980 l 408 408 l 817 408 m 245 0 l 0 245 l 0 1144 l 245 1389 l 980 1389 l 1225 1144 l 1225 245 l 980 0 l 245 0 m 408 1470 l 163 1715 l 653 1715 l 899 1470 l 408 1470 z "},"Ó":{"ha":1307,"x_min":0,"x_max":1225,"o":"m 817 408 l 817 980 l 408 980 l 408 408 l 817 408 m 245 0 l 0 245 l 0 1144 l 245 1389 l 980 1389 l 1225 1144 l 1225 245 l 980 0 l 245 0 m 327 1470 l 572 1715 l 1062 1715 l 817 1470 l 327 1470 z "},"Ô":{"ha":1307,"x_min":0,"x_max":1225,"o":"m 817 408 l 817 980 l 408 980 l 408 408 l 817 408 m 245 0 l 0 245 l 0 1144 l 245 1389 l 980 1389 l 1225 1144 l 1225 245 l 980 0 l 245 0 m 163 1470 l 408 1715 l 817 1715 l 1062 1470 l 653 1470 l 653 1471 l 613 1511 l 572 1470 l 163 1470 z "},"Õ":{"ha":1307,"x_min":0,"x_max":1225,"o":"m 817 408 l 817 980 l 408 980 l 408 408 l 817 408 m 245 0 l 0 245 l 0 1144 l 245 1389 l 980 1389 l 1225 1144 l 1225 245 l 980 0 l 245 0 m 0 1470 l 245 1715 l 735 1715 l 776 1675 l 817 1715 l 817 1715 l 1225 1715 l 980 1470 l 490 1470 l 490 1471 l 449 1511 l 408 1470 l 0 1470 z "},"Ö":{"ha":1307,"x_min":0,"x_max":1225,"o":"m 817 408 l 817 980 l 408 980 l 408 408 l 817 408 m 245 0 l 0 245 l 0 1144 l 245 1389 l 980 1389 l 1225 1144 l 1225 245 l 980 0 l 245 0 m 245 1470 l 245 1715 l 572 1715 l 572 1470 l 245 1470 m 653 1470 l 653 1715 l 980 1715 l 980 1470 l 653 1470 z "},"×":{"ha":1307,"x_min":0,"x_max":1225,"o":"m 0 0 l 0 572 l 81 653 l 82 653 l 122 694 l 0 817 l 0 1389 l 408 1389 l 408 899 l 817 899 l 817 1389 l 1225 1389 l 1225 817 l 1144 735 l 1143 735 l 1103 694 l 1225 572 l 1225 0 l 817 0 l 817 490 l 408 490 l 408 0 l 0 0 z "},"Ø":{"ha":1307,"x_min":0,"x_max":1225,"o":"m 817 408 l 817 572 l 653 408 l 817 408 m 408 817 l 572 980 l 408 980 l 408 817 m 0 0 l 0 408 l 41 449 l 0 490 l 0 1144 l 245 1389 l 735 1389 l 776 1348 l 817 1389 l 817 1389 l 1225 1389 l 1225 980 l 1184 939 l 1225 899 l 1225 899 l 1225 245 l 980 0 l 490 0 l 449 41 l 408 0 l 0 0 z "},"Ù":{"ha":1307,"x_min":0,"x_max":1225,"o":"m 245 0 l 0 245 l 0 1389 l 408 1389 l 408 408 l 817 408 l 817 1389 l 1225 1389 l 1225 245 l 980 0 l 245 0 m 408 1470 l 163 1715 l 653 1715 l 899 1470 l 408 1470 z "},"Ú":{"ha":1307,"x_min":0,"x_max":1225,"o":"m 245 0 l 0 245 l 0 1389 l 408 1389 l 408 408 l 817 408 l 817 1389 l 1225 1389 l 1225 245 l 980 0 l 245 0 m 327 1470 l 572 1715 l 1062 1715 l 817 1470 l 327 1470 z "},"Û":{"ha":1307,"x_min":0,"x_max":1225,"o":"m 245 0 l 0 245 l 0 1389 l 408 1389 l 408 408 l 817 408 l 817 1389 l 1225 1389 l 1225 245 l 980 0 l 245 0 m 163 1470 l 408 1715 l 817 1715 l 1062 1470 l 653 1470 l 653 1471 l 613 1511 l 572 1470 l 163 1470 z "},"Ü":{"ha":1307,"x_min":0,"x_max":1225,"o":"m 245 0 l 0 245 l 0 1389 l 408 1389 l 408 408 l 817 408 l 817 1389 l 1225 1389 l 1225 245 l 980 0 l 245 0 m 245 1470 l 245 1715 l 572 1715 l 572 1470 l 245 1470 m 653 1470 l 653 1715 l 980 1715 l 980 1470 l 653 1470 z "},"Ý":{"ha":1307,"x_min":0,"x_max":1225,"o":"m 408 0 l 408 408 l 0 817 l 0 1389 l 408 1389 l 408 980 l 572 817 l 572 817 l 613 776 l 817 980 l 817 1389 l 1225 1389 l 1225 817 l 817 408 l 817 0 l 408 0 m 327 1470 l 572 1715 l 1062 1715 l 817 1470 l 327 1470 z "},"Þ":{"ha":1307,"x_min":0,"x_max":1225,"o":"m 817 653 l 817 735 l 408 735 l 408 653 l 817 653 m 0 0 l 0 1389 l 408 1389 l 408 1144 l 980 1144 l 1225 899 l 1225 490 l 980 245 l 408 245 l 408 0 l 0 0 z "},"ß":{"ha":1307,"x_min":0,"x_max":1225,"o":"m 817 899 l 817 980 l 408 980 l 408 899 l 817 899 m 0 0 l 0 1144 l 245 1389 l 980 1389 l 1225 1144 l 1225 817 l 1144 735 l 1143 735 l 1103 694 l 1225 572 l 1225 245 l 980 0 l 572 0 l 572 408 l 817 408 l 817 490 l 408 490 l 408 0 l 0 0 z "},"à":{"ha":1307,"x_min":0,"x_max":1225,"o":"m 817 899 l 817 980 l 408 980 l 408 899 l 817 899 m 0 0 l 0 1144 l 245 1389 l 980 1389 l 1225 1144 l 1225 0 l 817 0 l 817 490 l 408 490 l 408 0 l 0 0 m 408 1470 l 163 1715 l 653 1715 l 899 1470 l 408 1470 z "},"á":{"ha":1307,"x_min":0,"x_max":1225,"o":"m 817 899 l 817 980 l 408 980 l 408 899 l 817 899 m 0 0 l 0 1144 l 245 1389 l 980 1389 l 1225 1144 l 1225 0 l 817 0 l 817 490 l 408 490 l 408 0 l 0 0 m 327 1470 l 572 1715 l 1062 1715 l 817 1470 l 327 1470 z "},"â":{"ha":1307,"x_min":0,"x_max":1225,"o":"m 817 899 l 817 980 l 408 980 l 408 899 l 817 899 m 0 0 l 0 1144 l 245 1389 l 980 1389 l 1225 1144 l 1225 0 l 817 0 l 817 490 l 408 490 l 408 0 l 0 0 m 163 1470 l 408 1715 l 817 1715 l 1062 1470 l 653 1470 l 653 1471 l 613 1511 l 572 1470 l 163 1470 z "},"ã":{"ha":1307,"x_min":0,"x_max":1225,"o":"m 817 899 l 817 980 l 408 980 l 408 899 l 817 899 m 0 0 l 0 1144 l 245 1389 l 980 1389 l 1225 1144 l 1225 0 l 817 0 l 817 490 l 408 490 l 408 0 l 0 0 m 0 1470 l 245 1715 l 735 1715 l 776 1675 l 817 1715 l 817 1715 l 1225 1715 l 980 1470 l 490 1470 l 490 1471 l 449 1511 l 408 1470 l 0 1470 z "},"ä":{"ha":1307,"x_min":0,"x_max":1225,"o":"m 817 899 l 817 980 l 408 980 l 408 899 l 817 899 m 0 0 l 0 1144 l 245 1389 l 980 1389 l 1225 1144 l 1225 0 l 817 0 l 817 490 l 408 490 l 408 0 l 0 0 m 245 1470 l 245 1715 l 572 1715 l 572 1470 l 245 1470 m 653 1470 l 653 1715 l 980 1715 l 980 1470 l 653 1470 z "},"å":{"ha":1307,"x_min":0,"x_max":1225,"o":"m 817 899 l 817 980 l 408 980 l 408 899 l 817 899 m 653 1389 l 653 1470 l 572 1470 l 572 1389 l 653 1389 m 0 0 l 0 1144 l 245 1389 l 245 1634 l 327 1715 l 899 1715 l 980 1634 l 980 1389 l 1225 1144 l 1225 0 l 817 0 l 817 490 l 408 490 l 408 0 l 0 0 z "},"æ":{"ha":2124,"x_min":0,"x_max":2042,"o":"m 817 899 l 817 980 l 408 980 l 408 899 l 817 899 m 0 0 l 0 1144 l 245 1389 l 980 1389 l 980 1389 l 1021 1348 l 1062 1389 l 2042 1389 l 2042 980 l 1225 980 l 1225 899 l 1715 899 l 1715 490 l 1225 490 l 1225 408 l 2042 408 l 2042 0 l 817 0 l 817 490 l 408 490 l 408 0 l 0 0 z "},"ç":{"ha":1307,"x_min":0,"x_max":1225,"o":"m 327 -490 l 327 -81 l 490 -81 l 490 0 l 245 0 l 0 245 l 0 1144 l 245 1389 l 1225 1389 l 1225 980 l 408 980 l 408 408 l 1225 408 l 1225 0 l 899 0 l 899 -245 l 653 -490 l 327 -490 z "},"è":{"ha":1307,"x_min":0,"x_max":1225,"o":"m 0 0 l 0 1389 l 1225 1389 l 1225 980 l 408 980 l 408 899 l 899 899 l 899 490 l 408 490 l 408 408 l 1225 408 l 1225 0 l 0 0 m 408 1470 l 163 1715 l 653 1715 l 899 1470 l 408 1470 z "},"é":{"ha":1307,"x_min":0,"x_max":1225,"o":"m 0 0 l 0 1389 l 1225 1389 l 1225 980 l 408 980 l 408 899 l 899 899 l 899 490 l 408 490 l 408 408 l 1225 408 l 1225 0 l 0 0 m 327 1470 l 572 1715 l 1062 1715 l 817 1470 l 327 1470 z "},"ê":{"ha":1307,"x_min":0,"x_max":1225,"o":"m 0 0 l 0 1389 l 1225 1389 l 1225 980 l 408 980 l 408 899 l 899 899 l 899 490 l 408 490 l 408 408 l 1225 408 l 1225 0 l 0 0 m 163 1470 l 408 1715 l 817 1715 l 1062 1470 l 653 1470 l 653 1471 l 613 1511 l 572 1470 l 163 1470 z "},"ë":{"ha":1307,"x_min":0,"x_max":1225,"o":"m 0 0 l 0 1389 l 1225 1389 l 1225 980 l 408 980 l 408 899 l 899 899 l 899 490 l 408 490 l 408 408 l 1225 408 l 1225 0 l 0 0 m 245 1470 l 245 1715 l 572 1715 l 572 1470 l 245 1470 m 653 1470 l 653 1715 l 980 1715 l 980 1470 l 653 1470 z "},"ì":{"ha":817,"x_min":-81,"x_max":735,"o":"m 0 0 l 0 408 l 163 408 l 163 980 l 0 980 l 0 1389 l 735 1389 l 735 980 l 572 980 l 572 408 l 735 408 l 735 0 l 0 0 m 163 1470 l -81 1715 l 408 1715 l 653 1470 l 163 1470 z "},"í":{"ha":817,"x_min":0,"x_max":817,"o":"m 0 0 l 0 408 l 163 408 l 163 980 l 0 980 l 0 1389 l 735 1389 l 735 980 l 572 980 l 572 408 l 735 408 l 735 0 l 0 0 m 81 1470 l 327 1715 l 817 1715 l 572 1470 l 81 1470 z "},"î":{"ha":817,"x_min":-81,"x_max":817,"o":"m 0 0 l 0 408 l 163 408 l 163 980 l 0 980 l 0 1389 l 735 1389 l 735 980 l 572 980 l 572 408 l 735 408 l 735 0 l 0 0 m -81 1470 l 163 1715 l 572 1715 l 817 1470 l 408 1470 l 408 1471 l 368 1511 l 327 1470 l -81 1470 z "},"ï":{"ha":817,"x_min":0,"x_max":735,"o":"m 0 0 l 0 408 l 163 408 l 163 980 l 0 980 l 0 1389 l 735 1389 l 735 980 l 572 980 l 572 408 l 735 408 l 735 0 l 0 0 m 0 1470 l 0 1715 l 327 1715 l 327 1470 l 0 1470 m 408 1470 l 408 1715 l 735 1715 l 735 1470 l 408 1470 z "},"ð":{"ha":1307,"x_min":0,"x_max":1225,"o":"m 817 408 l 817 980 l 490 980 l 490 899 l 572 899 l 572 490 l 490 490 l 490 408 l 817 408 m 81 0 l 81 490 l 0 490 l 0 899 l 81 899 l 81 1389 l 980 1389 l 1225 1144 l 1225 245 l 980 0 l 81 0 z "},"ñ":{"ha":1307,"x_min":0,"x_max":1225,"o":"m 0 0 l 0 1144 l 245 1389 l 980 1389 l 1225 1144 l 1225 0 l 817 0 l 817 980 l 408 980 l 408 0 l 0 0 m 0 1470 l 245 1715 l 735 1715 l 776 1675 l 817 1715 l 817 1715 l 1225 1715 l 980 1470 l 490 1470 l 490 1471 l 449 1511 l 408 1470 l 0 1470 z "},"ò":{"ha":1307,"x_min":0,"x_max":1225,"o":"m 817 408 l 817 980 l 408 980 l 408 408 l 817 408 m 245 0 l 0 245 l 0 1144 l 245 1389 l 980 1389 l 1225 1144 l 1225 245 l 980 0 l 245 0 m 408 1470 l 163 1715 l 653 1715 l 899 1470 l 408 1470 z "},"ó":{"ha":1307,"x_min":0,"x_max":1225,"o":"m 817 408 l 817 980 l 408 980 l 408 408 l 817 408 m 245 0 l 0 245 l 0 1144 l 245 1389 l 980 1389 l 1225 1144 l 1225 245 l 980 0 l 245 0 m 327 1470 l 572 1715 l 1062 1715 l 817 1470 l 327 1470 z "},"ô":{"ha":1307,"x_min":0,"x_max":1225,"o":"m 817 408 l 817 980 l 408 980 l 408 408 l 817 408 m 245 0 l 0 245 l 0 1144 l 245 1389 l 980 1389 l 1225 1144 l 1225 245 l 980 0 l 245 0 m 163 1470 l 408 1715 l 817 1715 l 1062 1470 l 653 1470 l 653 1471 l 613 1511 l 572 1470 l 163 1470 z "},"õ":{"ha":1307,"x_min":0,"x_max":1225,"o":"m 817 408 l 817 980 l 408 980 l 408 408 l 817 408 m 245 0 l 0 245 l 0 1144 l 245 1389 l 980 1389 l 1225 1144 l 1225 245 l 980 0 l 245 0 m 0 1470 l 245 1715 l 735 1715 l 776 1675 l 817 1715 l 817 1715 l 1225 1715 l 980 1470 l 490 1470 l 490 1471 l 449 1511 l 408 1470 l 0 1470 z "},"ö":{"ha":1307,"x_min":0,"x_max":1225,"o":"m 817 408 l 817 980 l 408 980 l 408 408 l 817 408 m 245 0 l 0 245 l 0 1144 l 245 1389 l 980 1389 l 1225 1144 l 1225 245 l 980 0 l 245 0 m 245 1470 l 245 1715 l 572 1715 l 572 1470 l 245 1470 m 653 1470 l 653 1715 l 980 1715 l 980 1470 l 653 1470 z "},"÷":{"ha":1307,"x_min":0,"x_max":1225,"o":"m 408 0 l 408 408 l 817 408 l 817 0 l 408 0 m 0 490 l 0 899 l 1225 899 l 1225 490 l 0 490 m 408 980 l 408 1389 l 817 1389 l 817 980 l 408 980 z "},"ø":{"ha":1307,"x_min":0,"x_max":1225,"o":"m 817 408 l 817 572 l 653 408 l 817 408 m 408 817 l 572 980 l 408 980 l 408 817 m 0 0 l 0 408 l 41 449 l 0 490 l 0 1144 l 245 1389 l 735 1389 l 776 1348 l 817 1389 l 817 1389 l 1225 1389 l 1225 980 l 1184 939 l 1225 899 l 1225 899 l 1225 245 l 980 0 l 490 0 l 449 41 l 408 0 l 0 0 z "},"ù":{"ha":1307,"x_min":0,"x_max":1225,"o":"m 245 0 l 0 245 l 0 1389 l 408 1389 l 408 408 l 817 408 l 817 1389 l 1225 1389 l 1225 245 l 980 0 l 245 0 m 408 1470 l 163 1715 l 653 1715 l 899 1470 l 408 1470 z "},"ú":{"ha":1307,"x_min":0,"x_max":1225,"o":"m 245 0 l 0 245 l 0 1389 l 408 1389 l 408 408 l 817 408 l 817 1389 l 1225 1389 l 1225 245 l 980 0 l 245 0 m 327 1470 l 572 1715 l 1062 1715 l 817 1470 l 327 1470 z "},"û":{"ha":1307,"x_min":0,"x_max":1225,"o":"m 245 0 l 0 245 l 0 1389 l 408 1389 l 408 408 l 817 408 l 817 1389 l 1225 1389 l 1225 245 l 980 0 l 245 0 m 163 1470 l 408 1715 l 817 1715 l 1062 1470 l 653 1470 l 653 1471 l 613 1511 l 572 1470 l 163 1470 z "},"ü":{"ha":1307,"x_min":0,"x_max":1225,"o":"m 245 0 l 0 245 l 0 1389 l 408 1389 l 408 408 l 817 408 l 817 1389 l 1225 1389 l 1225 245 l 980 0 l 245 0 m 245 1470 l 245 1715 l 572 1715 l 572 1470 l 245 1470 m 653 1470 l 653 1715 l 980 1715 l 980 1470 l 653 1470 z "},"ý":{"ha":1307,"x_min":0,"x_max":1225,"o":"m 408 0 l 408 408 l 0 817 l 0 1389 l 408 1389 l 408 980 l 572 817 l 572 817 l 613 776 l 817 980 l 817 1389 l 1225 1389 l 1225 817 l 817 408 l 817 0 l 408 0 m 327 1470 l 572 1715 l 1062 1715 l 817 1470 l 327 1470 z "},"þ":{"ha":1307,"x_min":0,"x_max":1225,"o":"m 817 653 l 817 735 l 408 735 l 408 653 l 817 653 m 0 0 l 0 1389 l 408 1389 l 408 1144 l 980 1144 l 1225 899 l 1225 490 l 980 245 l 408 245 l 408 0 l 0 0 z "},"ÿ":{"ha":1307,"x_min":0,"x_max":1225,"o":"m 408 0 l 408 408 l 0 817 l 0 1389 l 408 1389 l 408 980 l 572 817 l 572 817 l 613 776 l 817 980 l 817 1389 l 1225 1389 l 1225 817 l 817 408 l 817 0 l 408 0 m 245 1470 l 245 1715 l 572 1715 l 572 1470 l 245 1470 m 653 1470 l 653 1715 l 980 1715 l 980 1470 l 653 1470 z "},"Œ":{"ha":2124,"x_min":0,"x_max":2042,"o":"m 817 408 l 817 980 l 408 980 l 408 408 l 817 408 m 245 0 l 0 245 l 0 1144 l 245 1389 l 980 1389 l 980 1389 l 1021 1348 l 1062 1389 l 2042 1389 l 2042 980 l 1225 980 l 1225 899 l 1715 899 l 1715 490 l 1225 490 l 1225 408 l 2042 408 l 2042 0 l 1062 0 l 1021 41 l 980 0 l 245 0 z "},"œ":{"ha":2124,"x_min":0,"x_max":2042,"o":"m 817 408 l 817 980 l 408 980 l 408 408 l 817 408 m 245 0 l 0 245 l 0 1144 l 245 1389 l 980 1389 l 980 1389 l 1021 1348 l 1062 1389 l 2042 1389 l 2042 980 l 1225 980 l 1225 899 l 1715 899 l 1715 490 l 1225 490 l 1225 408 l 2042 408 l 2042 0 l 1062 0 l 1021 41 l 980 0 l 245 0 z "},"Ů":{"ha":1307,"x_min":0,"x_max":1225,"o":"m 817 408 l 817 1144 l 408 1144 l 408 408 l 817 408 m 653 1389 l 653 1470 l 572 1470 l 572 1389 l 653 1389 m 245 0 l 0 245 l 0 1389 l 245 1389 l 245 1634 l 327 1715 l 899 1715 l 980 1634 l 980 1389 l 1225 1389 l 1225 245 l 980 0 l 245 0 z "},"ů":{"ha":1307,"x_min":0,"x_max":1225,"o":"m 817 408 l 817 1144 l 408 1144 l 408 408 l 817 408 m 653 1389 l 653 1470 l 572 1470 l 572 1389 l 653 1389 m 245 0 l 0 245 l 0 1389 l 245 1389 l 245 1634 l 327 1715 l 899 1715 l 980 1634 l 980 1389 l 1225 1389 l 1225 245 l 980 0 l 245 0 z "},"Ÿ":{"ha":1307,"x_min":0,"x_max":1225,"o":"m 408 0 l 408 408 l 0 817 l 0 1389 l 408 1389 l 408 980 l 572 817 l 572 817 l 613 776 l 817 980 l 817 1389 l 1225 1389 l 1225 817 l 817 408 l 817 0 l 408 0 m 245 1470 l 245 1715 l 572 1715 l 572 1470 l 245 1470 m 653 1470 l 653 1715 l 980 1715 l 980 1470 l 653 1470 z "},"ſ":{"ha":1307,"x_min":0,"x_max":1225,"o":"m 817 327 l 817 1062 l 408 1062 l 408 327 l 817 327 m 0 -81 l 0 1470 l 1225 1470 l 1225 -81 l 0 -81 z "},"ẞ":{"ha":1307,"x_min":0,"x_max":1225,"o":"m 817 899 l 817 980 l 408 980 l 408 899 l 817 899 m 0 0 l 0 1144 l 245 1389 l 980 1389 l 1225 1144 l 1225 817 l 1144 735 l 1143 735 l 1103 694 l 1225 572 l 1225 245 l 980 0 l 572 0 l 572 408 l 817 408 l 817 490 l 408 490 l 408 0 l 0 0 z "},"—":{"ha":1307,"x_min":0,"x_max":1225,"o":"m 0 490 l 0 899 l 1225 899 l 1225 490 l 0 490 z "},"‘":{"ha":490,"x_min":0,"x_max":408,"o":"m 0 817 l 0 1389 l 408 1389 l 408 817 l 0 817 z "},"’":{"ha":490,"x_min":0,"x_max":408,"o":"m 0 817 l 0 1389 l 408 1389 l 408 817 l 0 817 z "},"‚":{"ha":490,"x_min":0,"x_max":408,"o":"m 0 -163 l 0 408 l 408 408 l 408 -163 l 0 -163 z "},"‛":{"ha":490,"x_min":0,"x_max":408,"o":"m 0 817 l 0 1389 l 408 1389 l 408 817 l 0 817 z "},"“":{"ha":980,"x_min":0,"x_max":899,"o":"m 0 817 l 0 1389 l 408 1389 l 408 817 l 0 817 m 490 817 l 490 1389 l 899 1389 l 899 817 l 490 817 z "},"”":{"ha":980,"x_min":0,"x_max":899,"o":"m 0 817 l 0 1389 l 408 1389 l 408 817 l 0 817 m 490 817 l 490 1389 l 899 1389 l 899 817 l 490 817 z "},"„":{"ha":980,"x_min":0,"x_max":899,"o":"m 0 -163 l 0 408 l 408 408 l 408 -163 l 0 -163 m 490 -163 l 490 408 l 899 408 l 899 -163 l 490 -163 z "},"†":{"ha":1307,"x_min":0,"x_max":1225,"o":"m 408 0 l 408 572 l 0 572 l 0 980 l 408 980 l 408 1389 l 817 1389 l 817 980 l 1225 980 l 1225 572 l 817 572 l 817 0 l 408 0 z "},"•":{"ha":653,"x_min":0,"x_max":572,"o":"m 81 408 l 0 490 l 0 899 l 81 980 l 490 980 l 572 899 l 572 490 l 490 408 l 81 408 z "},"…":{"ha":1634,"x_min":0,"x_max":1552,"o":"m 0 0 l 0 408 l 408 408 l 408 0 l 0 0 m 572 0 l 572 408 l 980 408 l 980 0 l 572 0 m 1144 0 l 1144 408 l 1552 408 l 1552 0 l 1144 0 z "},"‹":{"ha":490,"x_min":0,"x_max":408,"o":"m 408 81 l 0 490 l 0 899 l 408 1307 l 408 735 l 368 694 l 408 653 l 408 653 l 408 81 z "},"›":{"ha":490,"x_min":0,"x_max":408,"o":"m 0 81 l 0 653 l 41 694 l 0 735 l 0 1307 l 408 899 l 408 490 l 0 81 z "},"€":{"ha":1307,"x_min":0,"x_max":1225,"o":"m 327 0 l 81 245 l 81 490 l 0 490 l 0 899 l 81 899 l 81 1144 l 327 1389 l 1225 1389 l 1225 980 l 490 980 l 490 899 l 817 899 l 817 490 l 490 490 l 490 408 l 1225 408 l 1225 0 l 327 0 z "},"™":{"ha":2859,"x_min":0,"x_max":2778,"o":"m 408 0 l 408 980 l 0 980 l 0 1389 l 1879 1389 l 1961 1307 l 1961 1307 l 2002 1266 l 2124 1389 l 2533 1389 l 2778 1144 l 2778 0 l 2369 0 l 2369 980 l 2206 980 l 2206 0 l 1797 0 l 1797 980 l 1634 980 l 1634 0 l 1225 0 l 1225 980 l 817 980 l 817 0 l 408 0 z "}}}
